<svg width="16" height="16" viewBox="0 0 16 16" fill="none" xmlns="http://www.w3.org/2000/svg">
<g id="Iconly/Bold/Play">
<g id="Group">
<path id="Exclude" fill-rule="evenodd" clip-rule="evenodd" d="M1.33398 8.00378C1.33398 4.32409 4.32626 1.33325 8.00065 1.33325C11.675 1.33325 14.6673 4.32409 14.6673 8.00378C14.6673 11.6758 11.675 14.6666 8.00065 14.6666C4.32626 14.6666 1.33398 11.6758 1.33398 8.00378ZM10.446 8.67848C10.5167 8.60773 10.6068 8.49839 10.6261 8.47266C10.7291 8.33759 10.7806 8.17036 10.7806 8.00378C10.7806 7.81661 10.7227 7.64295 10.6133 7.50145C10.6043 7.49249 10.5867 7.47338 10.5639 7.44848C10.5211 7.40189 10.4596 7.33501 10.4009 7.27633C9.87324 6.71032 8.49615 5.78413 7.77543 5.50112C7.66603 5.45674 7.38933 5.35962 7.24132 5.35319C7.09975 5.35319 6.96461 5.38535 6.83591 5.44967C6.67504 5.53972 6.54634 5.68122 6.47555 5.84845C6.43051 5.96422 6.35972 6.31154 6.35972 6.31798C6.28894 6.69746 6.25033 7.31492 6.25033 7.9967C6.25033 8.64697 6.28894 9.23806 6.34685 9.62397C6.34845 9.62557 6.35398 9.65316 6.36258 9.69604C6.38872 9.8264 6.44319 10.098 6.50129 10.2093C6.64286 10.4794 6.91957 10.6466 7.21558 10.6466H7.24132C7.43437 10.6402 7.83978 10.473 7.83978 10.4666C8.52189 10.1835 9.8668 9.30238 10.4073 8.71708L10.446 8.67848Z" fill="white"/>
</g>
</g>
</svg>
