<svg width="28" height="28" viewBox="0 0 28 28" fill="none" xmlns="http://www.w3.org/2000/svg">
<g id="Categories=Cast, Component=Additional Icons">
<g id="Group">
<path id="Vector" d="M3.50065 23.3333H3.51432C4.1569 23.3333 4.68099 22.8092 4.68099 22.1667C4.68099 21.5241 4.1569 21 3.51432 21H3.50065C2.85807 21 2.33398 21.5241 2.33398 22.1667C2.33398 22.8092 2.85807 23.3333 3.50065 23.3333Z" fill="white"/>
<path id="Vector_2" d="M9.33399 22.1663C9.33399 18.9443 6.72266 16.333 3.50065 16.333C2.85807 16.333 2.33398 16.8571 2.33398 17.4997C2.33398 18.1423 2.85807 18.6663 3.50065 18.6663C5.43294 18.6709 6.99609 20.234 7.00065 22.1663C7.00065 22.8089 7.52474 23.333 8.16732 23.333C8.8099 23.333 9.33399 22.8089 9.33399 22.1663Z" fill="white"/>
<path id="Vector_3" d="M14.0007 22.1665C14.0007 16.3651 9.30208 11.6665 3.50065 11.6665C2.85807 11.6665 2.33398 12.1906 2.33398 12.8332C2.33398 13.4757 2.85807 13.9998 3.50065 13.9998C5.76107 13.9998 7.79362 14.9113 9.27474 16.3924C10.7559 17.8735 11.6673 19.9061 11.6673 22.1665C11.6673 22.8091 12.1914 23.3332 12.834 23.3332C13.4766 23.3332 14.0007 22.8091 14.0007 22.1665Z" fill="white"/>
<path id="Vector_4" d="M17.5009 23.3332H21.0009C23.5803 23.3332 25.6676 21.2459 25.6676 18.6665V9.33317C25.6676 6.75374 23.5803 4.6665 21.0009 4.6665H7.00092H6.99181C5.03217 4.68473 3.29129 5.92887 2.63504 7.77913C2.42085 8.38525 2.73986 9.05518 3.34598 9.26937C3.9521 9.48356 4.62202 9.16455 4.83621 8.55843C5.16434 7.6333 6.03478 7.01351 7.0146 7.00439H7.00548H21.0055C22.2952 7.00895 23.3343 8.04801 23.3388 9.33773V18.6711C23.3343 19.9608 22.2952 20.9998 21.0055 21.0044H17.5055C16.8629 21.0044 16.3388 21.5285 16.3388 22.1711C16.3343 22.8091 16.8583 23.3332 17.5009 23.3332Z" fill="white"/>
</g>
</g>
</svg>
