<svg width="32" height="32" viewBox="0 0 32 32" fill="none" xmlns="http://www.w3.org/2000/svg">
<path d="M13.0372 4.36347C13.8666 2.92682 15.5881 2.32625 17.098 2.85757C17.857 3.11076 18.53 3.63186 18.9615 4.37932L28.5742 21.0289C30.1356 23.7334 29.209 27.1916 26.5045 28.7531C25.9636 29.0653 25.272 28.88 24.9597 28.3391L15.9948 12.8115L7.03903 28.3233C6.72676 28.8642 6.03511 29.0495 5.4942 28.7372C2.78971 27.1758 1.86307 23.7175 3.42452 21.013L13.0372 4.36347Z" fill="url(#paint0_linear_1636_10214)"/>
<path d="M16.0106 28.9034C17.8844 28.9034 19.4033 27.3844 19.4033 25.5107C19.4033 23.637 17.8844 22.118 16.0106 22.118C14.1369 22.118 12.6179 23.637 12.6179 25.5107C12.6179 27.3844 14.1369 28.9034 16.0106 28.9034Z" fill="url(#paint1_linear_1636_10214)"/>
<defs>
<linearGradient id="paint0_linear_1636_10214" x1="29.3327" y1="28.9047" x2="-2.31745" y2="19.5782" gradientUnits="userSpaceOnUse">
<stop stop-color="#06C149"/>
<stop offset="1" stop-color="#1ADF61"/>
</linearGradient>
<linearGradient id="paint1_linear_1636_10214" x1="29.3327" y1="28.9047" x2="-2.31745" y2="19.5782" gradientUnits="userSpaceOnUse">
<stop stop-color="#06C149"/>
<stop offset="1" stop-color="#1ADF61"/>
</linearGradient>
</defs>
</svg>
