<svg width="25" height="24" viewBox="0 0 25 24" fill="none" xmlns="http://www.w3.org/2000/svg">
<g id="Iconly/Bold/Calendar">
<g id="Calendar">
<path id="Calendar_2" fill-rule="evenodd" clip-rule="evenodd" d="M16.8108 2.76862L16.8118 3.51824C19.5664 3.73413 21.3861 5.61119 21.389 8.48975L21.3999 16.9155C21.4038 20.054 19.4321 21.985 16.2717 21.99L8.55179 22C5.4111 22.004 3.41472 20.027 3.41077 16.8795L3.39991 8.55272C3.39596 5.65517 5.15143 3.78311 7.90607 3.53024L7.90509 2.78061C7.9041 2.34083 8.22992 2.01 8.66434 2.01C9.09877 2.009 9.42458 2.33883 9.42557 2.77861L9.42656 3.47826L15.2913 3.47027L15.2903 2.77062C15.2893 2.33084 15.6151 2.001 16.0496 2C16.4741 1.999 16.8098 2.32884 16.8108 2.76862ZM4.92138 8.86157L19.8695 8.84158V8.49175C19.8271 6.34283 18.7489 5.21539 16.8137 5.04748L16.8147 5.81709C16.8147 6.24688 16.48 6.5877 16.0555 6.5877C15.6211 6.5887 15.2942 6.24887 15.2942 5.81909L15.2933 5.0095L9.42853 5.01749L9.42952 5.82609C9.42952 6.25687 9.10469 6.5967 8.67027 6.5967C8.23584 6.5977 7.90904 6.25887 7.90904 5.82809L7.90805 5.05847C5.98276 5.25137 4.91743 6.38281 4.92039 8.55072L4.92138 8.86157ZM15.6398 13.4043V13.4153C15.6497 13.8751 16.0249 14.2239 16.48 14.2139C16.9243 14.2029 17.2788 13.8221 17.2689 13.3623C17.2482 12.9225 16.8917 12.5637 16.4484 12.5647C15.9943 12.5747 15.6388 12.9445 15.6398 13.4043ZM16.4553 17.892C16.0012 17.882 15.6349 17.5032 15.6339 17.0435C15.624 16.5837 15.9883 16.2029 16.4425 16.1919H16.4524C16.9164 16.1919 17.2926 16.5707 17.2926 17.0405C17.2936 17.5102 16.9184 17.891 16.4553 17.892ZM11.572 13.4203C11.5918 13.8801 11.9679 14.2389 12.4221 14.2189C12.8664 14.1979 13.2209 13.8181 13.2011 13.3583C13.1903 12.9085 12.8249 12.5587 12.3806 12.5597C11.9265 12.5797 11.571 12.9605 11.572 13.4203ZM12.4261 17.8471C11.9719 17.8671 11.5967 17.5082 11.576 17.0485C11.576 16.5887 11.9304 16.2089 12.3846 16.1879C12.8289 16.1869 13.1952 16.5367 13.2051 16.9855C13.2258 17.4463 12.8704 17.8261 12.4261 17.8471ZM7.50423 13.4553C7.52398 13.915 7.90015 14.2749 8.35432 14.2539C8.79862 14.2339 9.15307 13.8531 9.13233 13.3933C9.12246 12.9435 8.75715 12.5937 8.31187 12.5947C7.85769 12.6147 7.50324 12.9955 7.50423 13.4553ZM8.35827 17.8521C7.9041 17.8731 7.52891 17.5132 7.50818 17.0535C7.50719 16.5937 7.86263 16.2129 8.3168 16.1929C8.7611 16.1919 9.1274 16.5417 9.13727 16.9915C9.15801 17.4513 8.80355 17.8321 8.35827 17.8521Z" fill="#06C149"/>
</g>
</g>
</svg>
