<svg width="24" height="25" viewBox="0 0 24 25" fill="none" xmlns="http://www.w3.org/2000/svg">
<g id="Iconly/Bold/Play">
<g id="Group">
<path id="Exclude" fill-rule="evenodd" clip-rule="evenodd" d="M2 12.2544C2 6.71029 6.48842 2.2041 12 2.2041C17.5116 2.2041 22 6.71029 22 12.2544C22 17.7868 17.5116 22.293 12 22.293C6.48842 22.293 2 17.7868 2 12.2544ZM15.668 13.2709C15.7741 13.1643 15.9093 12.9996 15.9382 12.9608C16.0927 12.7573 16.1699 12.5053 16.1699 12.2544C16.1699 11.9724 16.083 11.7107 15.9189 11.4975C15.9055 11.484 15.8791 11.4552 15.8448 11.4177C15.7806 11.3475 15.6885 11.2468 15.6004 11.1583C14.8089 10.3056 12.7432 8.91009 11.6622 8.4837C11.4981 8.41683 11.083 8.2705 10.861 8.26081C10.6486 8.26081 10.4459 8.30926 10.2529 8.40617C10.0116 8.54184 9.81853 8.75504 9.71236 9.007C9.64479 9.18143 9.53861 9.70473 9.53861 9.71442C9.43243 10.2862 9.37452 11.2165 9.37452 12.2437C9.37452 13.2234 9.43243 14.114 9.51931 14.6955C9.52169 14.6979 9.53 14.7394 9.5429 14.804C9.58211 15.0004 9.6638 15.4096 9.75097 15.5773C9.96332 15.9843 10.3784 16.2363 10.8224 16.2363H10.861C11.1506 16.2266 11.7587 15.9746 11.7587 15.9649C12.7819 15.5385 14.7992 14.2109 15.61 13.3291L15.668 13.2709Z" fill="white"/>
</g>
</g>
</svg>
